<svg id="Capa_1" data-name="Capa 1" xmlns="http://www.w3.org/2000/svg" viewBox="0 0 1033.5 210.3"><defs><style>.cls-1{fill:#0049ff;}.cls-1,.cls-2{stroke:#fff;stroke-miterlimit:10;}.cls-2{fill:none;stroke-width:2.55px;}</style></defs><path class="cls-1" d="M344.2,581.2h31.9l18.3,86.7,18.8-86.7H446L411.1,701.7H378.7L359.8,614l-19.1,87.7H308L274.2,581.2H308l18.8,86.4Z" transform="translate(-74 -538.8)"/><path class="cls-1" d="M541.9,583.6a49.44,49.44,0,0,1,20.8,17.8,60.6,60.6,0,0,1,9.6,24.9,155,155,0,0,1,1,23.9H485.6c.5,12.1,4.7,20.5,12.6,25.4q7.2,4.5,17.4,4.5c7.2,0,13-1.8,17.5-5.5a26.69,26.69,0,0,0,6.5-8.3h32.2c-.8,7.1-4.7,14.4-11.7,21.8q-16.2,17.55-45.3,17.6a65.41,65.41,0,0,1-42.4-14.8c-12.2-9.9-18.4-26-18.4-48.2q0-31.35,16.6-48C481.7,583.6,496,578,513.7,578A68,68,0,0,1,541.9,583.6Zm-47.1,27.2c-4.5,4.6-7.2,10.8-8.4,18.6h54.3c-.6-8.4-3.4-14.7-8.4-19s-11.2-6.5-18.7-6.5C505.5,603.9,499.2,606.2,494.8,610.8Z" transform="translate(-74 -538.8)"/><path class="cls-1" d="M598.9,583.3l31.6,96.4,33-96.4h21.8L640.7,701.7H619.5L575.8,583.3Z" transform="translate(-74 -538.8)"/><path class="cls-1" d="M776,586.5q11.85,5.85,18,15.3a53.65,53.65,0,0,1,8,20.9q1.8,8.25,1.8,26.1H717c.4,12,3.2,21.6,8.5,28.9s13.5,10.9,24.6,10.9c10.4,0,18.7-3.4,24.9-10.3a35.72,35.72,0,0,0,7.5-13.8h19.6c-.5,4.4-2.2,9.2-5.1,14.5a52.71,52.71,0,0,1-9.8,13.1A45.52,45.52,0,0,1,764.8,704a66.92,66.92,0,0,1-16.2,1.8c-14.7,0-27.2-5.4-37.5-16.1s-15.4-25.7-15.4-45q0-28.5,15.5-46.3c10.3-11.9,23.8-17.8,40.4-17.8A54.47,54.47,0,0,1,776,586.5Zm7.3,46.5c-.8-8.6-2.7-15.5-5.6-20.7-5.5-9.6-14.5-14.4-27.3-14.4a30.34,30.34,0,0,0-23,9.9c-6.2,6.6-9.5,15-9.8,25.1h65.7Z" transform="translate(-74 -538.8)"/><path class="cls-1" d="M828.7,539.3h19.9V701.6H828.7Z" transform="translate(-74 -538.8)"/><path class="cls-1" d="M964.9,595.1c10.5,10.2,15.8,25.1,15.8,44.9q0,28.65-13.9,47.3T923.6,706c-16.3,0-29.2-5.5-38.8-16.5s-14.4-25.8-14.4-44.4q0-29.85,15.1-47.5c10.1-11.8,23.7-17.7,40.7-17.7C941.4,579.8,954.3,584.9,964.9,595.1Zm-12.4,78.7a74.63,74.63,0,0,0,7.3-33.3c0-11.1-1.8-20-5.3-27-5.6-10.9-15.2-16.3-29-16.3-12.2,0-21,4.6-26.5,13.9s-8.3,20.5-8.3,33.6c0,12.6,2.8,23.1,8.3,31.5s14.3,12.6,26.3,12.6C938.6,688.8,947.7,683.8,952.5,673.8Z" transform="translate(-74 -538.8)"/><path class="cls-1" d="M1002.8,583.8h19.3v15.7a49.25,49.25,0,0,1,13-12.5q10.05-6.6,23.7-6.6c13.4,0,24.8,5.1,34.2,15.4s14,25,14,44q0,38.7-20.2,55.2a45.78,45.78,0,0,1-29.8,10.5c-8.9,0-16.4-2-22.4-5.9-3.5-2.2-7.5-6-11.8-11.4v60.4h-19.9l-.1-164.8Zm74.6,92.8c6.2-7.8,9.2-19.4,9.2-34.9,0-9.4-1.4-17.5-4.1-24.3-5.2-13-14.6-19.6-28.3-19.6s-23.2,6.9-28.3,20.7c-2.7,7.4-4.1,16.7-4.1,28.1,0,9.1,1.4,16.9,4.1,23.3,5.2,12.2,14.6,18.3,28.3,18.3C1063.6,688.2,1071.3,684.4,1077.4,676.6Z" transform="translate(-74 -538.8)"/><line class="cls-2" x1="117.2" y1="180" x2="117.2" y2="180"/><line class="cls-2" x1="141.7" y1="139.4" x2="141.7" y2="139.4"/><line class="cls-2" x1="141.7" y1="139.4" x2="141.7" y2="139.4"/><path class="cls-1" d="M85.1,590.5a21.16,21.16,0,0,0-10.6,18.4v2.6l118,68.1,10.4,6-34.6,20a17.89,17.89,0,0,1-17.9,0L74.6,661.8v17.4a21.38,21.38,0,0,0,10.6,18.4l48.5,28,12.3,7.1a21.14,21.14,0,0,0,21.2,0l15.1-8.7,9-5.2,24.5-14.1h0l1.2-.7,9-5.2,2.2-1.3a21.16,21.16,0,0,0,10.6-18.4v-2.6l-10.1-5.8-12.8-7.4-128.6-74Z" transform="translate(-74 -538.8)"/><path class="cls-1" d="M145.9,555.4l-15.1,8.7,75.7,43.7a18.11,18.11,0,0,1,9.1,15.7v29.6l21.7,12.5,1.6.9-.3-29.8V608.8A21.16,21.16,0,0,0,228,590.4l-12.3-7.1-48.5-28A21.57,21.57,0,0,0,145.9,555.4Z" transform="translate(-74 -538.8)"/></svg>